<svg width="1024" height="1024" viewBox="0 0 1024 1024" fill="none" xmlns="http://www.w3.org/2000/svg">
<path d="M475.957 945.06C460.603 943.303 445.078 942.466 429.926 939.635C355.152 925.664 288.69 893.634 230.36 845.054C181.683 804.514 145.248 754.536 118.814 697.04C103.003 662.649 91.5447 626.954 84.7311 589.758C78.0301 553.178 76.8325 516.358 79.6719 479.297C83.1757 433.564 94.1645 389.642 111.194 347.22C135.264 287.261 170.535 234.823 218.493 191.316C281.549 134.113 355.357 98.1909 439.028 83.4803C527.65 67.8992 613.219 79.3681 695.016 116.984C759.555 146.663 814.43 188.939 857.67 245.532C896.36 296.169 922.317 352.865 936.064 415.153C941.677 440.581 944.762 466.324 946.334 492.602C933.908 481.744 921.552 470.848 909.909 459.237C881.626 431.036 853.649 402.527 825.604 374.087C818.13 366.507 810.948 358.639 803.443 351.092C800.715 348.349 797.438 346.153 794.301 343.428C792.277 338.747 789.232 336.804 784.132 336.856C762.167 337.078 740.199 336.915 718.232 336.886C708.81 336.873 707.907 337.655 706.253 347.029C701.083 342.61 696.262 338.212 691.359 333.909C690.047 332.758 688.485 331.893 687.005 330.598C686.155 329.566 685.338 328.832 684.378 327.732C683.288 323.278 680.52 321.822 676.548 321.829C645.095 321.884 613.642 321.939 582.189 321.882C577.446 321.874 575.734 323.913 575.747 328.534C575.766 335.673 575.326 342.813 574.711 349.972C571.259 347.984 568.177 345.978 564.96 343.748C564.533 343.346 564.239 343.168 563.755 342.706C561.477 338.314 558.343 336.7 553.545 336.742C527.818 336.966 502.088 336.851 476.36 336.894C474.05 336.898 471.741 337.201 469.193 337.061C464.293 333.827 459.633 330.896 454.775 327.661C453.734 321.547 449.294 321.834 445.101 321.838C416.477 321.866 387.854 321.912 359.23 321.976C346.975 322.003 346.835 322.256 346.761 334.753C346.697 345.544 346.419 356.334 345.905 367.103C344.066 366.689 342.557 366.297 340.925 365.651C340.241 364.903 339.681 364.411 339.048 363.587C337.028 361.483 335.08 359.711 333.065 357.601C329.899 354.357 326.8 351.453 323.496 348.282C322.464 342.457 320.007 340.131 314.421 340.118C290.924 340.06 267.427 340.057 243.93 340.107C238.119 340.119 235.901 342.464 235.898 348.374C235.856 465.36 235.845 582.346 235.747 699.331C235.742 704.595 237.932 707.432 243.064 708.516C245.676 711.372 248.273 713.88 250.843 716.416C263.883 729.282 276.916 742.154 290.101 755.314C291.434 756.433 292.618 757.264 293.967 758.392C296.72 761.187 299.307 763.684 301.947 766.516C302.806 767.889 303.521 769.015 304.432 769.951C316.485 782.341 328.51 794.76 340.65 807.066C370.199 837.018 399.784 866.936 429.397 896.826C443.788 911.353 458.293 925.768 472.682 940.298C474.016 941.645 474.876 943.461 475.957 945.06Z" fill="#7571B3"/>
<path d="M476.348 945.201C474.876 943.461 474.016 941.645 472.682 940.298C458.293 925.768 443.788 911.353 429.397 896.826C399.784 866.936 370.199 837.018 340.65 807.066C328.51 794.76 316.485 782.341 304.432 769.951C303.521 769.015 302.806 767.889 302.129 766.159C302.788 764.626 303.493 763.848 303.809 762.935C304.463 761.04 304.911 759.074 305.443 757.138C307.454 758.416 309.611 759.517 311.435 761.021C313.481 762.709 315.188 764.8 317.113 766.643C318.625 768.091 320.171 769.525 321.834 770.792C324.114 772.528 326.582 774.018 328.844 775.775C330.034 776.699 330.957 777.965 332.147 779.233C335.303 773.711 334.047 770.371 329.137 768.899C327.956 768.545 326.428 767.372 326.165 766.303C325.422 763.29 324.414 761.048 320.867 760.662C320.162 760.586 319.616 758.972 319.014 758.056C316.441 754.139 314.017 750.11 311.189 746.388C310.601 745.614 308.522 745.975 307.131 745.807C304.706 745.514 301.462 746.098 300.014 744.751C296.008 741.026 292.132 736.86 289.375 732.179C286.624 727.51 284.605 723.152 278.026 723.858C276.418 724.03 274.622 722.464 272.912 721.698C273.021 721.043 273.13 720.388 273.239 719.733C280.793 718.993 288.347 718.252 295.901 717.512C295.9 717.029 295.9 716.546 295.899 716.064C293.68 715.242 291.461 714.421 289.242 713.599C289.372 713.019 289.502 712.439 289.633 711.86C299.561 711.548 309.488 711.102 319.419 710.998C322.788 710.963 325.143 710.732 327.116 707.202C329.808 702.386 330.646 697.883 330.272 692.304C329.681 683.499 330.818 674.591 330.962 665.722C331.126 655.729 331.254 645.722 330.888 635.739C330.717 631.071 329.344 626.447 328.528 621.801C328.418 621.172 328.086 620.335 328.357 619.922C333.062 612.736 330.244 604.706 330.983 597.087C331.298 593.836 330.773 591.185 326.372 592.574C326.372 589.976 326.372 587.763 326.372 585.39C328.027 585.811 329.303 586.136 331.209 586.62C330.771 581.405 330.775 576.74 329.909 572.244C328.575 565.32 328.259 558.915 330.625 551.826C332.648 545.767 331.888 538.703 331.953 532.079C332.102 517.086 332.033 502.092 331.965 487.098C331.955 484.801 331.279 482.508 331.261 480.211C331.182 470.062 331.24 459.911 331.232 449.761C331.228 443.839 331.096 437.915 331.202 431.995C331.296 426.766 329.647 421.283 333.32 416.348C334.316 417.899 334.97 419.498 334.953 421.09C334.687 447.204 334.182 473.316 334.07 499.43C334.015 512.127 334.454 524.837 335.111 537.518C335.308 541.316 337.503 544.989 337.869 548.806C338.324 553.546 340.101 555.82 344.996 555.471C344.997 573.625 344.996 591.311 344.613 609.082C343.579 612.9 342.674 616.618 342.427 620.38C342.352 621.526 344.088 622.792 344.996 624.47C344.998 628.758 345.311 632.614 344.869 636.383C344.642 638.328 343.464 640.528 342.028 641.886C339.241 644.52 339.228 653.215 342.03 655.898C343.448 657.257 344.837 659.468 344.87 661.319C345.11 674.602 344.929 687.892 345.089 701.177C345.108 702.793 346.357 704.394 347.128 706.137C347.22 706.273 347.138 706.591 347.143 706.984C350.37 708.585 353.543 710.646 356.823 710.835C365.54 711.336 374.302 711.034 383.047 711.042C392.292 711.051 401.54 711.177 410.783 711.009C417.408 710.889 424.165 709.372 430.615 710.267C439.641 711.519 448.226 710.682 457.458 708.662C457.458 646.597 457.458 584.634 457.458 522.672C458.562 526.632 459.966 529.786 464.531 529.561C464.746 530.285 464.921 530.6 464.921 530.914C464.955 566.405 464.987 601.896 464.942 637.387C464.941 638.543 464.45 640.012 463.656 640.798C460.743 643.681 459.292 653.952 462.408 656.052C466.225 658.623 464.752 661.865 464.931 664.901C465.113 667.993 466.126 671.611 461.417 672.89C460.641 673.101 460.04 675.512 460.074 676.889C460.268 684.514 460.649 692.136 461.067 699.754C461.117 700.653 461.672 701.597 462.198 702.381C463.439 704.228 464.803 705.991 466.118 707.788C465.879 708.157 465.641 708.525 465.402 708.894C470.55 709.78 475.698 711.401 480.846 711.398C491.442 711.392 502.034 710.28 512.635 710.087C519.582 709.961 526.545 710.928 533.499 710.903C542.202 710.871 550.903 710.329 559.604 709.996C566.023 709.749 567.353 707.525 565.003 700.529C565.003 675.339 564.895 650.616 565.049 625.895C565.13 612.783 565.819 599.675 565.931 586.563C565.985 580.282 565.018 573.993 565.071 567.712C565.175 555.265 565.841 542.824 565.929 530.378C565.979 523.43 565.013 516.475 565.068 509.528C565.207 492.087 565.902 474.65 565.925 457.21C565.945 442.435 565.167 427.661 565.046 412.885C564.881 392.659 565.004 372.431 565.002 352.204C565.002 350.873 565.104 349.528 564.95 348.214C564.861 347.453 564.356 346.741 563.946 345.676C563.918 344.894 563.981 344.444 564.308 343.994C564.745 343.986 564.92 343.979 565.095 343.972C568.177 345.978 571.259 347.984 574.748 350.241C575.094 350.662 575.035 350.833 574.683 351.301C573.929 363.949 573.077 376.298 573.064 388.648C572.955 492.459 573.001 596.27 573 700.081C573 701.248 573.045 702.416 572.994 703.58C572.852 706.861 573.988 709.171 577.609 709.32C584.496 709.604 591.385 709.937 598.275 709.97C617.185 710.058 636.095 710.002 655.006 710.002C664.004 710.002 673.002 710.001 682.176 710.237C684.105 710.366 685.858 710.259 688.823 710.079C687.704 708.463 686.851 707.232 686.051 705.584C686.384 698.503 686.751 691.839 686.826 685.171C686.834 684.413 685.202 683.637 684.257 682.6C684.24 681.965 684.296 681.6 684.745 681.012C685.758 676.25 686.849 671.715 686.89 667.171C686.956 659.731 686.092 652.284 686.082 644.84C686.073 637.895 686.666 630.95 687.291 623.711C687.719 619.047 687.949 614.675 687.89 610.307C687.88 609.528 686.672 608.766 686.013 607.529C686.007 602.038 686.005 597.013 686.002 591.523C686.077 587.278 686.153 583.496 686.353 579.679C686.625 579.545 686.74 579.419 686.999 578.888C687.499 576.091 690.277 572.792 684.77 572.013C684.624 570.801 684.687 569.961 685.245 569.023C686.16 565.618 686.58 562.31 687.359 559.06C688.812 561.537 690.508 563.873 690.86 566.396C691.395 570.242 691 574.217 691 578.138C691 583.003 691 587.869 691 592.975C696.035 592.333 696.466 589.403 695.92 586.583C694.618 579.863 698.218 575.222 701.956 570.478C705.759 575.748 705.589 611.146 701.461 615.79C701.133 609.584 696.735 609.797 692.5 609.601C692.5 625.277 692.5 640.859 692.5 657.846C696.034 652.159 698.863 647.607 701.692 643.054C702.176 643.145 702.66 643.235 703.144 643.324C703.429 645.128 703.955 646.93 703.962 648.735C704.028 664.231 703.914 679.727 704.095 695.221C704.121 697.501 705.416 699.765 706.27 702.33C706.457 703.054 706.498 703.484 706.29 704.005C706.283 704.308 706.526 704.518 706.992 704.853C707.544 705.555 707.871 706.133 708.044 706.817C708.019 706.88 708.15 706.837 708.652 706.96C710.956 707.445 712.889 708.039 714.821 708.041C738.151 708.063 761.481 708.012 784.811 707.948C792.784 707.926 794.157 706.607 794.162 698.643C794.209 623.488 794.21 548.333 794.254 473.178C794.279 430.021 794.357 386.864 794.411 343.708C797.438 346.153 800.715 348.349 803.443 351.092C810.948 358.639 818.13 366.507 825.604 374.087C853.649 402.527 881.626 431.036 909.909 459.237C921.552 470.848 933.908 481.744 946.255 493.02C945.968 513.202 946.257 533.403 944.57 553.438C941.289 592.419 932.907 630.387 919.465 667.231C886.373 757.935 829.315 829.415 747.524 880.676C687.778 918.12 622.453 939.491 552.096 945.245C526.976 947.3 501.862 947.749 476.348 945.201Z" fill="#57478F"/>
<path d="M243.036 708.181C237.932 707.432 235.742 704.595 235.747 699.331C235.845 582.346 235.856 465.36 235.898 348.374C235.901 342.464 238.119 340.119 243.93 340.107C267.427 340.057 290.924 340.06 314.421 340.118C320.007 340.131 322.464 342.457 323.337 348.711C323.325 352.069 323.216 354.73 323.216 357.392C323.218 434.621 323.242 511.851 323.238 589.081C323.236 625.698 323.257 662.316 323.018 698.932C322.998 701.935 321.056 704.926 319.746 707.911C319.332 707.984 319.18 708.069 318.56 708.107C293.073 708.101 268.054 708.141 243.036 708.181ZM249.081 650.481C249.081 654.251 249.081 658.021 249.081 661.728C269.762 661.728 289.786 661.728 309.664 661.728C309.664 593.771 309.664 526.262 309.664 458.464C289.334 458.464 269.445 458.464 249.083 458.464C249.083 522.341 249.083 585.914 249.081 650.481ZM256.551 376.261C274.308 376.261 292.066 376.261 309.937 376.261C309.937 368.247 309.937 360.851 309.937 353.372C289.547 353.372 269.495 353.372 249.28 353.372C249.28 361.135 249.28 368.523 249.28 376.275C251.609 376.275 253.586 376.275 256.551 376.261ZM292.499 675.189C278.086 675.189 263.674 675.189 249.361 675.189C249.361 682.227 249.361 688.47 249.361 694.672C269.746 694.672 289.778 694.672 309.753 694.672C309.753 688.015 309.753 681.783 309.753 675.189C304.096 675.189 298.797 675.189 292.499 675.189ZM274.5 399.675C286.252 399.675 298.005 399.675 309.794 399.675C309.794 395.83 309.794 392.612 309.794 389.272C289.386 389.272 269.373 389.272 249.29 389.272C249.29 392.818 249.29 396.027 249.29 399.675C257.598 399.675 265.549 399.675 274.5 399.675ZM272.5 412.007C264.766 412.007 257.033 412.007 249.433 412.007C249.433 415.816 249.433 418.884 249.433 421.961C269.826 421.961 289.833 421.961 309.723 421.961C309.723 418.508 309.723 415.459 309.723 412.011C297.38 412.011 285.44 412.011 272.5 412.007ZM249.933 435.159C249.638 438.285 249.344 441.411 249.027 444.767C269.857 444.767 289.719 444.767 309.826 444.767C309.826 441.423 309.826 438.378 309.826 434.956C289.97 434.956 270.408 434.956 249.933 435.159Z" fill="#FAF9FC"/>
<path d="M684.352 681.235C684.296 681.6 684.24 681.965 684.16 682.999C684.123 688.5 684.105 693.333 684.102 698.165C684.097 706.727 682.839 708.014 674.28 708.018C644.452 708.033 614.623 708.039 584.794 708.019C582.974 708.018 581.138 707.872 579.336 707.608C576.288 707.163 574.926 705.596 574.902 702.219C574.76 682.61 574.327 663.003 574.114 643.394C573.991 632.01 573.98 620.621 574.138 609.238C574.243 601.631 574.995 594.03 575.01 586.426C575.161 512.437 575.223 438.449 575.286 364.461C575.289 359.975 575.083 355.489 574.975 351.003C575.035 350.833 575.094 350.662 575.117 350.222C575.326 342.813 575.766 335.673 575.747 328.534C575.734 323.913 577.446 321.874 582.189 321.882C613.642 321.94 645.095 321.884 676.548 321.829C680.52 321.822 683.288 323.278 684.291 328.185C684.542 336.671 684.738 344.337 684.834 352.464C684.774 376.947 684.816 400.97 684.749 425.435C684.709 428.586 684.776 431.297 684.739 434.325C684.701 435.079 684.767 435.515 684.686 436.19C684.636 436.962 684.732 437.495 684.698 438.342C684.654 439.093 684.742 439.529 684.675 440.413C684.444 482.649 684.364 524.438 684.309 566.227C684.308 567.191 684.596 568.156 684.75 569.121C684.687 569.961 684.624 570.801 684.633 572.347C684.704 574.343 684.703 575.633 684.675 577.007C684.648 577.091 684.472 577.419 684.377 577.89C684.324 582.904 684.367 587.447 684.309 592.448C684.181 599.229 684.118 605.552 684.134 611.874C684.193 634.995 684.277 658.115 684.352 681.235ZM587.978 438.73C588.023 439.483 588.068 440.236 587.931 441.882C587.931 443.803 587.931 445.725 587.931 447.834C612.348 447.834 636.179 447.834 660.665 447.979C661.107 447.931 661.548 447.883 662.814 448.02C664.211 447.944 665.609 447.868 667.661 447.945C668.102 447.891 668.544 447.837 669.782 447.945C670.411 446.503 671.585 445.064 671.59 443.62C671.702 408.83 671.694 374.038 671.688 339.247C671.688 337.805 671.496 336.363 671.391 334.869C643.502 334.869 615.962 334.869 588.008 334.869C588.008 342.01 588.001 348.807 588.009 355.604C588.042 383.064 588.079 410.525 587.978 438.73ZM647.055 461.364C635.384 461.425 623.713 461.485 611.133 461.28C603.531 461.28 595.928 461.28 587.993 461.28C587.993 529.138 587.993 596.345 587.993 663.779C590.448 663.779 592.735 663.779 595.938 663.923C600.284 663.871 604.631 663.82 609.898 663.958C614.938 663.899 619.979 663.84 625.935 663.928C630.284 663.885 634.634 663.842 639.906 663.986C648.275 663.935 656.645 663.884 665.749 663.978C666.494 663.935 667.238 663.891 668.804 664.018C672.594 664.408 671.596 661.601 671.597 659.659C671.633 596.056 671.636 532.454 671.643 468.851C671.644 466.423 671.643 463.995 671.643 461.584C663.191 461.584 655.575 461.584 647.055 461.364ZM605.501 694.972C627.252 694.972 649.003 694.972 670.908 694.972C670.908 688.72 670.908 683.039 670.908 677.442C643.132 677.442 615.76 677.442 588.31 677.442C588.31 683.41 588.31 688.969 588.31 694.972C593.925 694.972 599.214 694.972 605.501 694.972Z" fill="#F9F8FC"/>
<path d="M347.138 706.591C347.138 706.591 347.22 706.273 347.137 705.714C346.868 702.834 346.522 700.513 346.519 698.193C346.464 662.401 346.409 626.609 346.442 590.817C346.495 532.718 346.652 474.618 346.678 416.519C346.685 400.054 346.392 383.589 346.236 367.124C346.419 356.334 346.697 345.544 346.761 334.753C346.835 322.256 346.975 322.003 359.23 321.976C387.854 321.912 416.477 321.866 445.101 321.838C449.294 321.834 453.734 321.547 454.73 328.132C454.852 452.23 454.823 575.553 454.792 698.877C454.79 706.379 453.338 707.933 445.773 707.956C415.276 708.049 384.778 708.109 354.281 708.058C351.899 708.054 349.519 707.102 347.138 706.591ZM359.09 521.5C359.09 568.921 359.09 616.342 359.09 663.69C387.027 663.69 414.403 663.69 441.769 663.69C441.769 596.017 441.769 528.797 441.769 461.648C414.168 461.648 386.934 461.648 359.09 461.648C359.09 481.603 359.09 501.052 359.09 521.5ZM437.387 334.962C411.481 334.962 385.575 334.962 359.429 334.962C359.429 373.056 359.429 410.396 359.429 447.622C387.231 447.622 414.607 447.622 441.849 447.622C442.073 446.858 442.248 446.539 442.248 446.22C442.261 410.253 442.226 374.287 442.324 338.321C442.333 335.142 440.849 334.7 437.387 334.962ZM384.5 695.16C402.165 695.142 419.83 695.171 437.494 695.017C438.951 695.005 441.598 693.837 441.653 693.061C442.025 687.828 441.847 682.557 441.847 677.43C413.956 677.43 386.868 677.43 359.611 677.43C359.611 683.515 359.611 689.201 359.611 695.163C367.86 695.163 375.68 695.163 384.5 695.16Z" fill="#FAF8FC"/>
<path d="M708.199 706.711C707.872 706.133 707.544 705.555 706.985 704.635C706.755 704.294 706.539 703.913 706.539 703.913C706.498 703.484 706.457 703.054 706.357 701.865C706.396 607.73 706.5 514.354 706.587 420.977C706.61 396.347 706.578 371.716 706.571 347.085C707.907 337.655 708.81 336.873 718.232 336.886C740.199 336.915 762.167 337.078 784.132 336.856C789.232 336.804 792.277 338.747 794.301 343.428C794.357 386.864 794.279 430.021 794.254 473.178C794.211 548.333 794.21 623.488 794.162 698.643C794.157 706.607 792.784 707.926 784.811 707.948C761.481 708.012 738.151 708.063 714.821 708.041C712.889 708.039 710.956 707.445 708.577 706.993C708.129 706.861 708.199 706.711 708.199 706.711ZM719.92 401.501C719.92 488.098 719.92 574.694 719.92 661.538C740.394 661.538 760.437 661.538 780.674 661.538C780.674 568.936 780.674 476.696 780.674 384.242C760.387 384.242 740.35 384.242 719.921 384.242C719.921 389.893 719.921 395.198 719.92 401.501ZM750.5 695.014C760.438 695.014 770.376 695.014 780.615 695.014C780.615 687.904 780.615 681.355 780.615 674.671C760.301 674.671 740.269 674.671 720.218 674.671C720.218 681.638 720.218 688.188 720.218 695.014C730.236 695.014 739.868 695.014 750.5 695.014ZM759.5 371.168C766.577 371.168 773.653 371.168 780.703 371.168C780.703 363.651 780.703 356.934 780.703 350.219C760.328 350.219 740.321 350.219 720.31 350.219C720.31 357.329 720.31 364.042 720.31 371.169C733.279 371.169 745.889 371.169 759.5 371.168Z" fill="#FBFAFC"/>
<path d="M564.045 343.995C563.982 344.444 563.918 344.894 563.851 346.136C563.778 449.153 563.706 551.379 563.637 653.604C563.626 669.408 563.631 685.211 563.476 701.368C563.235 702.484 563.145 703.246 562.942 704.148C562.829 704.287 562.834 704.647 562.52 704.847C559.526 706.031 556.851 707.849 554.162 707.87C527.691 708.073 501.216 708.002 474.743 707.951C467.87 707.938 466.143 706.177 466.147 699.441C466.208 581.393 466.261 463.346 466.48 345.299C466.485 342.652 468.405 340.009 469.432 337.364C471.741 337.201 474.05 336.898 476.36 336.894C502.088 336.851 527.818 336.966 553.545 336.742C558.343 336.7 561.477 338.314 563.726 342.962C563.941 343.666 563.993 343.831 564.045 343.995ZM525.5 392.949C510.382 392.949 495.263 392.949 479.617 392.949C479.617 493.877 479.617 594.241 479.617 694.651C503.257 694.651 526.672 694.651 550.193 694.651C550.193 594.028 550.193 493.773 550.193 392.949C542.08 392.949 534.29 392.949 525.5 392.949ZM550.353 356.58C550.353 354.176 550.353 351.772 550.353 349.781C526.2 349.781 502.965 349.781 479.613 349.781C479.613 360.077 479.613 369.792 479.613 379.444C503.361 379.444 526.721 379.444 550.365 379.444C550.365 371.841 550.365 364.699 550.353 356.58Z" fill="#F8F7FA"/>
<path d="M320.006 707.923C321.056 704.926 322.998 701.935 323.018 698.932C323.257 662.316 323.236 625.698 323.238 589.081C323.242 511.851 323.218 434.621 323.216 357.391C323.216 354.73 323.324 352.069 323.542 348.978C326.8 351.453 329.899 354.357 332.655 357.701C331.879 358.951 331.074 359.76 331.07 360.574C330.993 375.857 330.952 391.14 331.101 406.422C331.115 407.929 332.41 409.424 333.156 411.022C339.989 406.482 337.684 399.669 338.845 394.049C339.543 390.673 339.702 386.718 335.681 384.371C335.041 383.998 335.058 382.248 335.029 381.128C334.948 377.974 335.2 374.8 334.947 371.664C334.657 368.06 336.019 365.58 339.12 363.919C339.681 364.411 340.241 364.903 340.908 366.129C341.009 386.333 340.976 405.803 341.051 425.272C341.057 426.99 341.219 429.6 342.268 430.253C345.376 432.185 345.003 434.885 345.003 437.683C344.997 476.79 344.997 515.896 344.995 555.002C340.101 555.82 338.324 553.546 337.869 548.806C337.503 544.989 335.308 541.316 335.111 537.518C334.454 524.837 334.015 512.127 334.07 499.43C334.182 473.316 334.687 447.204 334.953 421.09C334.97 419.498 334.316 417.899 333.32 416.348C329.647 421.283 331.296 426.766 331.202 431.995C331.096 437.915 331.228 443.839 331.232 449.761C331.24 459.911 331.182 470.061 331.261 480.211C331.279 482.508 331.955 484.801 331.965 487.098C332.033 502.092 332.102 517.086 331.953 532.079C331.888 538.703 332.648 545.766 330.625 551.826C328.259 558.915 328.575 565.32 329.909 572.244C330.775 576.74 330.771 581.405 331.209 586.62C329.303 586.136 328.027 585.811 326.372 585.39C326.372 587.763 326.372 589.976 326.372 592.574C330.773 591.185 331.298 593.836 330.983 597.087C330.244 604.706 333.062 612.736 328.357 619.922C328.086 620.335 328.418 621.172 328.528 621.801C329.344 626.447 330.717 631.071 330.888 635.739C331.254 645.722 331.126 655.729 330.962 665.722C330.818 674.591 329.681 683.499 330.272 692.304C330.646 697.883 329.808 702.386 327.116 707.202C325.143 710.732 322.788 710.963 319.419 710.998C309.488 711.102 299.561 711.548 289.633 711.86C289.503 712.439 289.372 713.019 289.242 713.599C291.461 714.421 293.68 715.242 295.899 716.064C295.9 716.546 295.9 717.029 295.901 717.512C288.347 718.252 280.793 718.993 273.239 719.733C273.13 720.388 273.021 721.043 272.913 721.698C274.622 722.464 276.418 724.03 278.027 723.857C284.605 723.152 286.624 727.51 289.375 732.179C292.132 736.86 296.008 741.026 300.014 744.751C301.462 746.098 304.706 745.514 307.131 745.807C308.522 745.975 310.601 745.614 311.189 746.388C314.017 750.11 316.441 754.139 319.014 758.056C319.616 758.972 320.162 760.586 320.867 760.662C324.414 761.048 325.422 763.29 326.165 766.303C326.428 767.372 327.956 768.545 329.137 768.899C334.047 770.371 335.303 773.711 332.147 779.233C330.957 777.965 330.034 776.699 328.844 775.775C326.582 774.018 324.114 772.528 321.834 770.792C320.171 769.525 318.625 768.091 317.113 766.643C315.188 764.8 313.481 762.709 311.435 761.021C309.611 759.517 307.454 758.416 305.443 757.138C304.911 759.074 304.463 761.04 303.809 762.935C303.493 763.848 302.788 764.626 302.077 765.823C299.307 763.684 296.72 761.187 294.365 758.353C296.059 755.756 298.437 753.581 298.659 751.205C298.809 749.607 296.135 747.399 294.28 746.097C293.246 745.372 291.303 745.942 289.769 745.929C290.017 747.294 290.286 748.656 290.507 750.025C290.784 751.738 294.016 753.793 289.952 755.024C276.916 742.154 263.883 729.282 250.843 716.416C248.273 713.88 245.676 711.372 243.064 708.516C268.054 708.141 293.073 708.101 318.674 708.25C319.507 708.268 319.757 708.095 320.006 707.923ZM277.108 735.496C277.994 736.621 278.671 738.332 279.813 738.737C281.674 739.398 283.839 739.207 285.875 739.376C285.795 737.401 286.149 735.265 285.491 733.506C284.998 732.186 282.621 730.23 282.094 730.504C280.229 731.473 278.798 733.278 277.108 735.496ZM327.983 687.938C327.859 685.81 327.734 683.682 327.61 681.555C327.192 681.581 326.774 681.607 326.356 681.633C326.081 684.591 325.806 687.548 325.419 691.709C326.76 690.102 327.333 689.414 327.983 687.938ZM326.612 647.36C327.081 645.504 327.551 643.647 328.021 641.791C327.402 641.741 326.783 641.691 326.165 641.642C326.165 643.349 326.165 645.056 326.612 647.36ZM325.868 614.594C330.179 614.439 327.143 612.056 327.537 610.714C327.137 610.604 326.737 610.495 326.337 610.386C326.071 611.59 325.806 612.794 325.868 614.594ZM325.2 364.13C325.2 365.566 325.2 367.003 325.2 368.439C325.874 368.316 326.547 368.192 327.221 368.068C326.698 366.573 326.175 365.078 325.2 364.13ZM325.247 667.98C325.4 668.822 325.553 669.664 325.707 670.506C326.169 670.331 326.631 670.157 327.093 669.982C326.625 669.158 326.156 668.334 325.247 667.98ZM325.277 382.882C325.469 383.425 325.661 383.967 325.853 384.51C326.131 384.383 326.409 384.256 326.688 384.129C326.362 383.57 326.037 383.012 325.277 382.882ZM327.607 697.798C327.214 697.794 326.821 697.79 326.428 697.786C326.426 697.949 326.413 698.254 326.424 698.255C326.816 698.285 327.209 698.287 327.607 697.798Z" fill="#56458C"/>
<path d="M706.253 347.029C706.578 371.716 706.61 396.347 706.587 420.977C706.5 514.354 706.396 607.73 706.211 701.572C705.416 699.765 704.121 697.5 704.095 695.221C703.914 679.727 704.028 664.23 703.962 648.735C703.955 646.93 703.43 645.128 703.144 643.324C702.66 643.234 702.176 643.144 701.692 643.054C698.863 647.607 696.034 652.159 692.5 657.846C692.5 640.859 692.5 625.277 692.5 609.601C696.735 609.797 701.133 609.584 701.461 615.79C705.589 611.146 705.759 575.748 701.956 570.478C698.218 575.221 694.619 579.863 695.92 586.583C696.466 589.403 696.035 592.333 691 592.975C691 587.869 691 583.003 691 578.138C691 574.217 691.395 570.242 690.86 566.396C690.508 563.873 688.812 561.537 687.358 558.622C686.997 552.557 686.995 546.988 686.995 541.419C686.995 508.821 687.019 476.223 686.905 443.625C686.901 442.403 685.552 441.185 684.829 439.966C684.742 439.529 684.654 439.093 684.981 438.314C685.802 437.632 686.209 437.292 686.617 436.952C686.022 436.619 685.428 436.285 684.833 435.951C684.767 435.515 684.701 435.079 685.139 434.252C687.432 430.723 688.733 427.629 684.857 424.994C684.816 400.97 684.774 376.947 685.236 352.378C686.158 350.345 686.897 348.865 686.94 347.366C687.098 341.88 687.024 336.387 687.037 330.897C688.485 331.893 690.047 332.758 691.359 333.909C696.262 338.212 701.083 342.61 706.253 347.029Z" fill="#56458C"/>
<path d="M563.056 704.008C563.145 703.246 563.235 702.484 563.705 701.362C564.392 701.001 564.699 701 565.005 700.998C567.353 707.525 566.023 709.75 559.604 709.996C550.903 710.329 542.202 710.871 533.499 710.903C526.545 710.928 519.582 709.961 512.635 710.087C502.034 710.28 491.442 711.392 480.846 711.398C475.698 711.401 470.55 709.78 465.402 708.894C465.641 708.525 465.879 708.157 466.118 707.788C464.803 705.991 463.439 704.228 462.198 702.381C461.672 701.597 461.117 700.653 461.067 699.754C460.649 692.136 460.268 684.514 460.074 676.889C460.04 675.512 460.641 673.101 461.417 672.89C466.126 671.611 465.113 667.993 464.931 664.901C464.752 661.865 466.225 658.623 462.408 656.052C459.292 653.952 460.743 643.681 463.656 640.798C464.45 640.012 464.941 638.543 464.942 637.387C464.987 601.896 464.955 566.405 464.921 530.914C464.921 530.6 464.746 530.285 464.531 529.561C459.966 529.786 458.562 526.632 457.458 522.672C457.458 584.635 457.458 646.597 457.458 708.662C448.226 710.682 439.641 711.519 430.615 710.267C424.165 709.372 417.408 710.889 410.783 711.009C401.54 711.177 392.292 711.051 383.047 711.042C374.302 711.034 365.54 711.336 356.823 710.835C353.543 710.646 350.37 708.585 347.143 706.984C349.519 707.102 351.899 708.054 354.281 708.058C384.778 708.109 415.276 708.049 445.773 707.956C453.338 707.933 454.79 706.379 454.792 698.877C454.823 575.553 454.852 452.23 454.927 328.436C459.633 330.896 464.293 333.827 469.193 337.061C468.405 340.009 466.484 342.652 466.48 345.299C466.261 463.346 466.208 581.393 466.147 699.441C466.143 706.177 467.87 707.938 474.743 707.951C501.216 708.002 527.69 708.073 554.162 707.87C556.851 707.849 559.526 706.031 562.568 705.125C563.176 705.472 563.423 705.741 563.67 706.01C563.465 705.343 563.261 704.675 563.056 704.008ZM457.001 405.519C457.001 423.448 457.001 441.377 457.001 459.307C457.438 459.297 457.875 459.286 458.311 459.276C458.311 437.42 458.311 415.563 458.311 393.706C457.875 393.706 457.438 393.705 457.001 393.704C457.001 397.313 457.001 400.922 457.001 405.519ZM458.997 493.978C458.997 490.211 458.997 486.443 458.997 482.676C458.373 482.679 457.749 482.681 457.124 482.684C457.124 486.94 457.124 491.195 457.124 495.451C457.742 495.241 458.36 495.032 458.997 493.978Z" fill="#594A8A"/>
<path d="M344.996 555.471C344.997 515.896 344.997 476.79 345.003 437.683C345.003 434.885 345.376 432.185 342.268 430.253C341.219 429.6 341.057 426.99 341.051 425.273C340.976 405.803 341.009 386.333 341.031 366.384C342.557 366.297 344.066 366.689 345.905 367.103C346.392 383.589 346.685 400.054 346.678 416.519C346.652 474.618 346.495 532.718 346.442 590.817C346.409 626.609 346.464 662.401 346.519 698.192C346.522 700.513 346.868 702.834 347.045 705.578C346.357 704.394 345.108 702.793 345.089 701.177C344.929 687.892 345.11 674.602 344.87 661.319C344.837 659.468 343.448 657.257 342.03 655.898C339.228 653.215 339.241 644.52 342.028 641.886C343.464 640.528 344.642 638.328 344.869 636.383C345.311 632.614 344.998 628.758 344.998 624.004C344.997 618.379 344.996 613.688 344.995 608.998C344.996 591.311 344.997 573.625 344.996 555.471Z" fill="#594A8A"/>
<path d="M339.048 363.587C336.019 365.58 334.657 368.06 334.947 371.664C335.2 374.8 334.948 377.974 335.029 381.128C335.058 382.248 335.041 383.998 335.681 384.371C339.702 386.718 339.543 390.673 338.845 394.049C337.684 399.669 339.989 406.482 333.156 411.022C332.41 409.424 331.115 407.929 331.101 406.422C330.952 391.141 330.993 375.857 331.07 360.574C331.074 359.76 331.879 358.951 332.722 358.039C335.08 359.711 337.028 361.483 339.048 363.587Z" fill="#57478F"/>
<path d="M290.101 755.314C294.016 753.793 290.784 751.738 290.507 750.025C290.286 748.656 290.017 747.294 289.769 745.929C291.303 745.942 293.246 745.372 294.28 746.097C296.135 747.399 298.809 749.607 298.659 751.205C298.437 753.581 296.059 755.756 294.2 758.056C292.618 757.264 291.434 756.433 290.101 755.314Z" fill="#57478F"/>
<path d="M687.005 330.598C687.024 336.387 687.098 341.88 686.94 347.366C686.897 348.865 686.158 350.345 685.337 351.919C684.738 344.337 684.542 336.671 684.433 328.551C685.338 328.832 686.155 329.566 687.005 330.598Z" fill="#584E81"/>
<path d="M564.308 343.994C563.993 343.83 563.941 343.666 563.917 343.246C564.239 343.168 564.533 343.346 564.96 343.748C564.92 343.979 564.745 343.986 564.308 343.994Z" fill="#584E81"/>
<path d="M574.683 351.301C575.083 355.489 575.289 359.975 575.286 364.461C575.223 438.449 575.161 512.437 575.01 586.425C574.995 594.03 574.243 601.631 574.138 609.238C573.98 620.621 573.991 632.01 574.114 643.394C574.327 663.003 574.761 682.61 574.902 702.219C574.926 705.596 576.288 707.163 579.336 707.608C581.138 707.872 582.974 708.018 584.794 708.019C614.623 708.039 644.452 708.033 674.28 708.018C682.839 708.014 684.097 706.727 684.102 698.165C684.105 693.333 684.123 688.5 684.232 683.269C685.202 683.637 686.834 684.413 686.826 685.171C686.751 691.839 686.384 698.503 685.871 705.847C684.426 707.684 683.213 708.842 682 710C673.002 710.001 664.004 710.002 655.006 710.002C636.095 710.002 617.185 710.058 598.275 709.97C591.385 709.937 584.496 709.604 577.61 709.32C573.988 709.171 572.852 706.861 572.994 703.58C573.045 702.416 573 701.248 573 700.081C573.001 596.27 572.955 492.459 573.064 388.648C573.077 376.298 573.929 363.949 574.683 351.301Z" fill="#584E81"/>
<path d="M565.003 700.529C564.699 701 564.392 701.001 563.857 701.008C563.631 685.211 563.626 669.408 563.637 653.604C563.706 551.379 563.778 449.153 563.943 346.468C564.356 346.741 564.861 347.453 564.95 348.214C565.104 349.528 565.002 350.873 565.002 352.204C565.004 372.431 564.881 392.659 565.046 412.885C565.167 427.661 565.945 442.435 565.925 457.21C565.902 474.65 565.207 492.087 565.068 509.528C565.013 516.475 565.979 523.43 565.929 530.378C565.841 542.824 565.175 555.265 565.071 567.712C565.018 573.993 565.985 580.282 565.931 586.563C565.819 599.675 565.13 612.783 565.049 625.895C564.895 650.616 565.003 675.339 565.003 700.529Z" fill="#584E81"/>
<path d="M684.675 440.413C685.552 441.185 686.901 442.403 686.905 443.625C687.019 476.223 686.995 508.821 686.995 541.419C686.995 546.988 686.997 552.557 686.999 558.564C686.58 562.31 686.16 565.618 685.245 569.023C684.596 568.156 684.308 567.191 684.309 566.227C684.364 524.438 684.444 482.649 684.675 440.413Z" fill="#584E81"/>
<path d="M684.745 681.012C684.277 658.115 684.193 634.995 684.134 611.874C684.118 605.552 684.181 599.229 684.574 592.448C685.295 591.989 685.649 591.988 686.002 591.988C686.005 597.013 686.007 602.038 686.008 607.996C686.335 613.955 686.665 618.98 686.994 624.005C686.666 630.95 686.073 637.895 686.082 644.84C686.092 652.284 686.956 659.731 686.89 667.172C686.849 671.715 685.758 676.25 684.745 681.012Z" fill="#584E81"/>
<path d="M344.613 609.082C344.996 613.688 344.997 618.379 344.997 623.536C344.088 622.792 342.352 621.526 342.427 620.38C342.674 616.618 343.579 612.9 344.613 609.082Z" fill="#56458C"/>
<path d="M686.002 591.523C685.648 591.988 685.295 591.989 684.675 591.989C684.367 587.447 684.324 582.904 684.638 577.953C685.043 577.438 685.157 577.272 685.125 577.236C685.011 577.107 684.848 577.023 684.703 576.922C684.703 575.633 684.704 574.343 684.842 572.719C690.277 572.792 687.499 576.091 686.874 578.919C686.418 579.42 686.303 579.549 686.228 579.715C686.153 583.496 686.078 587.278 686.002 591.523Z" fill="#56458C"/>
<path d="M687.291 623.711C686.665 618.98 686.335 613.955 686.011 608.463C686.672 608.766 687.88 609.528 687.89 610.307C687.949 614.675 687.719 619.047 687.291 623.711Z" fill="#56458C"/>
<path d="M682.176 710.237C683.213 708.842 684.426 707.684 685.818 706.263C686.851 707.232 687.704 708.463 688.823 710.079C685.858 710.26 684.105 710.366 682.176 710.237Z" fill="#56458C"/>
<path d="M706.29 704.005C706.539 703.913 706.755 704.294 706.762 704.511C706.526 704.518 706.283 704.308 706.29 704.005Z" fill="#56458C"/>
<path d="M708.205 706.827C708.15 706.837 708.019 706.88 708.044 706.817C708.199 706.711 708.129 706.861 708.205 706.827Z" fill="#56458C"/>
<path d="M686.353 579.679C686.303 579.549 686.418 579.42 686.7 579.295C686.74 579.419 686.625 579.545 686.353 579.679Z" fill="#7571B3"/>
<path d="M249.082 649.984C249.083 585.914 249.083 522.341 249.083 458.464C269.445 458.464 289.334 458.464 309.664 458.464C309.664 526.262 309.664 593.771 309.664 661.728C289.786 661.728 269.762 661.728 249.081 661.728C249.081 658.021 249.081 654.251 249.082 649.984Z" fill="#57468E"/>
<path d="M256.057 376.268C253.586 376.275 251.608 376.275 249.28 376.275C249.28 368.523 249.28 361.135 249.28 353.372C269.495 353.372 289.547 353.372 309.937 353.372C309.937 360.851 309.937 368.247 309.937 376.261C292.066 376.261 274.308 376.261 256.057 376.268Z" fill="#55428A"/>
<path d="M292.998 675.189C298.797 675.189 304.096 675.189 309.753 675.189C309.753 681.783 309.753 688.015 309.753 694.672C289.777 694.672 269.746 694.672 249.361 694.672C249.361 688.47 249.361 682.227 249.361 675.189C263.674 675.189 278.086 675.189 292.998 675.189Z" fill="#564889"/>
<path d="M274 399.675C265.549 399.675 257.598 399.675 249.29 399.675C249.29 396.027 249.29 392.818 249.29 389.272C269.373 389.272 289.386 389.272 309.794 389.272C309.794 392.612 309.794 395.83 309.794 399.675C298.004 399.675 286.252 399.675 274 399.675Z" fill="#60518E"/>
<path d="M273 412.009C285.44 412.011 297.38 412.011 309.722 412.011C309.722 415.459 309.722 418.508 309.722 421.961C289.833 421.961 269.826 421.961 249.433 421.961C249.433 418.884 249.433 415.816 249.433 412.007C257.033 412.007 264.766 412.007 273 412.009Z" fill="#5D4D8A"/>
<path d="M250.39 435.057C270.408 434.956 289.97 434.956 309.826 434.956C309.826 438.378 309.826 441.423 309.826 444.767C289.719 444.767 269.857 444.767 249.027 444.767C249.344 441.411 249.638 438.285 250.39 435.057Z" fill="#5D4E8C"/>
<path d="M319.745 707.911C319.757 708.095 319.507 708.268 319.143 708.297C319.18 708.069 319.332 707.984 319.745 707.911Z" fill="#57478F"/>
<path d="M667.983 663.848C667.238 663.891 666.494 663.935 665.269 663.526C664.261 662.741 663.737 662.126 663.205 662.12C655.973 662.041 648.739 661.988 641.508 662.109C640.657 662.123 639.824 663.209 638.983 663.798C634.634 663.841 630.284 663.885 625.359 663.48C620.514 662.696 616.249 662.24 611.974 662.113C610.993 662.084 609.978 663.186 608.978 663.768C604.631 663.82 600.284 663.871 595.4 663.518C591.07 660.833 589.921 657.411 589.931 653.104C590.016 616.107 589.962 579.109 590.029 542.111C590.034 539.154 590.952 536.192 590.898 533.243C590.738 524.361 590.164 515.487 590.021 506.605C589.857 496.442 589.983 486.274 589.98 476.108C589.976 462.979 589.975 463.064 603.187 462.914C606.143 462.88 609.09 462.024 612.042 461.546C623.713 461.485 635.384 461.425 647.678 461.806C653.387 462.491 658.471 462.802 663.56 462.958C667.829 463.088 670.005 465.149 670.016 469.431C670.028 474.53 670.02 479.629 670.021 484.728C670.022 498.283 670.1 511.839 670.01 525.393C669.713 569.768 669.367 614.142 668.978 658.515C668.963 660.296 668.329 662.07 667.983 663.848Z" fill="#57458E"/>
<path d="M668.985 447.783C668.544 447.837 668.102 447.891 667.282 447.535C664.746 443.769 663.163 444.387 661.99 447.836C661.548 447.883 661.107 447.931 660.318 447.533C659.216 446.409 658.482 445.173 657.702 445.144C652.706 444.957 647.698 444.938 642.699 445.047C630.09 445.321 617.484 445.77 604.875 445.991C598.813 446.098 592.267 447.442 588.114 440.99C588.068 440.236 588.023 439.483 588.317 438.117C589.429 433.983 590.869 430.46 590.858 426.942C590.815 413.334 590.036 399.727 590.051 386.121C590.068 370.849 590.767 355.578 590.892 340.305C590.923 336.596 592.38 335.93 595.635 335.945C617.774 336.046 639.913 335.983 662.052 336.022C663.519 336.025 664.978 336.543 666.452 336.638C669.488 336.832 670.22 338.515 670.065 341.3C669.624 349.241 669.084 357.193 669.106 365.139C669.133 374.832 669.888 384.522 669.957 394.216C670.008 401.333 669.331 408.451 669.21 415.573C669.029 426.307 669.05 437.046 668.985 447.783ZM660.199 383.645C659.645 380.272 657.48 378.858 654.247 378.85C638.443 378.815 622.639 378.795 606.834 378.783C602.948 378.78 600.276 380.534 600.122 384.569C599.951 389.071 603.069 390.669 606.981 390.693C622.456 390.79 637.933 390.813 653.408 390.726C657.349 390.704 660.134 388.921 660.199 383.645ZM637.5 367.207C642.817 367.201 648.137 367.098 653.451 367.222C657.404 367.314 660.404 366.721 660.234 361.69C660.071 356.902 658.617 355.206 653.538 355.187C638.251 355.129 622.964 355.132 607.678 355.188C602.265 355.208 599.827 357.186 599.735 361.285C599.641 365.418 602.088 367.315 607.589 367.304C617.226 367.286 626.863 367.241 637.5 367.207ZM635.5 414.268C641.65 414.234 647.8 414.224 653.95 414.159C658.116 414.116 660.689 412.128 660.507 407.803C660.342 403.875 658.136 401.952 653.991 401.974C638.367 402.056 622.742 401.927 607.117 401.987C602.47 402.005 599.865 404.79 600.165 409.138C600.462 413.433 603.227 414.482 607.074 414.419C616.215 414.269 625.358 414.308 635.5 414.268Z" fill="#58488C"/>
<path d="M605.002 694.972C599.214 694.971 593.925 694.971 588.31 694.971C588.31 688.969 588.31 683.41 588.31 677.442C615.76 677.442 643.132 677.442 670.908 677.442C670.908 683.039 670.908 688.72 670.908 694.972C649.003 694.972 627.252 694.972 605.002 694.972Z" fill="#57488B"/>
<path d="M669.384 447.864C669.05 437.046 669.029 426.307 669.21 415.572C669.331 408.451 670.008 401.333 669.957 394.216C669.888 384.522 669.133 374.832 669.106 365.139C669.084 357.193 669.624 349.241 670.065 341.3C670.22 338.515 669.488 336.832 666.452 336.638C664.978 336.543 663.519 336.025 662.052 336.022C639.913 335.982 617.774 336.046 595.635 335.945C592.38 335.93 590.923 336.596 590.892 340.305C590.767 355.578 590.068 370.849 590.051 386.121C590.036 399.727 590.815 413.334 590.858 426.942C590.869 430.46 589.429 433.983 588.385 437.745C588.079 410.525 588.042 383.064 588.009 355.604C588.001 348.807 588.008 342.01 588.008 334.869C615.962 334.869 643.502 334.869 671.391 334.869C671.496 336.363 671.688 337.805 671.688 339.247C671.694 374.038 671.702 408.829 671.59 443.62C671.585 445.064 670.411 446.503 669.384 447.864Z" fill="#685C8C"/>
<path d="M668.393 663.933C668.329 662.07 668.963 660.296 668.978 658.515C669.367 614.142 669.713 569.768 670.01 525.393C670.1 511.839 670.022 498.283 670.021 484.728C670.02 479.629 670.028 474.53 670.016 469.431C670.005 465.149 667.829 463.088 663.56 462.958C658.471 462.802 653.387 462.491 648.13 461.916C655.575 461.584 663.191 461.584 671.643 461.584C671.643 463.995 671.644 466.423 671.643 468.851C671.636 532.454 671.633 596.056 671.597 659.659C671.596 661.601 672.594 664.408 668.393 663.933Z" fill="#685C8C"/>
<path d="M611.587 461.413C609.09 462.024 606.143 462.88 603.187 462.914C589.975 463.064 589.976 462.979 589.98 476.108C589.983 486.274 589.857 496.442 590.021 506.605C590.164 515.487 590.738 524.361 590.898 533.243C590.952 536.192 590.034 539.154 590.029 542.111C589.962 579.109 590.016 616.107 589.931 653.104C589.921 657.411 591.07 660.833 594.941 663.446C592.735 663.779 590.448 663.779 587.993 663.779C587.993 596.345 587.993 529.138 587.993 461.28C595.928 461.28 603.531 461.28 611.587 461.413Z" fill="#685C8C"/>
<path d="M588.022 441.436C592.267 447.442 598.813 446.098 604.875 445.991C617.484 445.77 630.09 445.321 642.699 445.047C647.698 444.938 652.706 444.957 657.702 445.143C658.482 445.173 659.216 446.409 659.991 447.46C636.179 447.834 612.348 447.834 587.931 447.834C587.931 445.725 587.931 443.803 588.022 441.436Z" fill="#685C8C"/>
<path d="M639.444 663.892C639.824 663.209 640.657 662.123 641.508 662.109C648.739 661.988 655.973 662.041 663.205 662.12C663.737 662.126 664.261 662.741 664.902 663.453C656.645 663.884 648.275 663.935 639.444 663.892Z" fill="#685C8C"/>
<path d="M609.438 663.863C609.978 663.186 610.993 662.084 611.974 662.113C616.249 662.24 620.514 662.696 624.901 663.407C619.979 663.84 614.938 663.899 609.438 663.863Z" fill="#685C8C"/>
<path d="M684.749 425.435C688.733 427.629 687.432 430.723 685.243 433.934C684.776 431.297 684.709 428.586 684.749 425.435Z" fill="#584E81"/>
<path d="M662.402 447.928C663.163 444.387 664.746 443.769 666.955 447.458C665.609 447.868 664.211 447.944 662.402 447.928Z" fill="#685C8C"/>
<path d="M684.686 436.19C685.428 436.285 686.022 436.619 686.617 436.952C686.209 437.292 685.802 437.632 685.112 438C684.732 437.495 684.636 436.962 684.686 436.19Z" fill="#584E81"/>
<path d="M684.675 577.007C684.848 577.023 685.011 577.107 685.125 577.236C685.157 577.272 685.043 577.438 684.734 577.482C684.472 577.419 684.648 577.091 684.675 577.007Z" fill="#7571B3"/>
<path d="M359.09 521C359.09 501.052 359.09 481.603 359.09 461.647C386.934 461.647 414.168 461.647 441.769 461.647C441.769 528.797 441.769 596.017 441.769 663.69C414.403 663.69 387.027 663.69 359.09 663.69C359.09 616.342 359.09 568.921 359.09 521Z" fill="#58478F"/>
<path d="M437.874 334.96C440.849 334.7 442.333 335.142 442.324 338.321C442.226 374.287 442.261 410.253 442.248 446.22C442.248 446.539 442.073 446.857 441.849 447.622C414.606 447.622 387.231 447.622 359.429 447.622C359.429 410.396 359.429 373.056 359.429 334.962C385.575 334.962 411.481 334.962 437.874 334.96ZM389.506 367.693C400.67 367.702 411.834 367.762 422.998 367.7C428.715 367.668 431.492 365.538 431.542 361.472C431.597 357.058 429.36 355.333 423.285 355.314C411.622 355.279 399.958 355.296 388.294 355.323C384.463 355.331 380.631 355.38 376.803 355.516C372.836 355.656 371.202 358.024 371.303 361.757C371.403 365.415 372.86 367.796 377.013 367.692C380.843 367.596 384.677 367.685 389.506 367.693ZM422.925 390.57C423.586 390.508 424.246 390.442 424.908 390.385C428.669 390.059 431.491 388.352 431.431 384.318C431.364 379.801 427.974 378.651 424.138 378.642C408.518 378.604 392.896 378.491 377.282 378.804C375.465 378.841 372.764 380.996 372.086 382.782C370.194 387.762 372.483 390.587 378.153 390.624C392.777 390.719 407.402 390.612 422.925 390.57ZM408.499 414.117C413.819 414.13 419.138 414.149 424.458 414.152C428.534 414.154 431.205 412.518 431.315 408.072C431.421 403.814 429.321 401.881 424.23 401.864C409.102 401.813 393.973 401.824 378.845 401.887C373.895 401.908 371.518 404.244 371.713 408.698C371.923 413.506 375.265 414.046 379.072 414.04C388.548 414.027 398.024 414.085 408.499 414.117Z" fill="#59478B"/>
<path d="M384 695.162C375.68 695.163 367.86 695.163 359.611 695.163C359.611 689.201 359.611 683.515 359.611 677.43C386.868 677.43 413.956 677.43 441.847 677.43C441.847 682.557 442.025 687.828 441.653 693.061C441.598 693.837 438.951 695.005 437.494 695.017C419.83 695.171 402.165 695.142 384 695.162Z" fill="#57488B"/>
<path d="M719.92 401.001C719.921 395.198 719.921 389.893 719.921 384.242C740.35 384.242 760.387 384.242 780.674 384.242C780.674 476.696 780.674 568.935 780.674 661.538C760.437 661.538 740.394 661.538 719.92 661.538C719.92 574.694 719.92 488.098 719.92 401.001Z" fill="#58478E"/>
<path d="M750 695.014C739.868 695.014 730.236 695.014 720.218 695.014C720.218 688.188 720.218 681.638 720.218 674.671C740.269 674.671 760.301 674.671 780.615 674.671C780.615 681.356 780.615 687.904 780.615 695.014C770.376 695.014 760.438 695.014 750 695.014Z" fill="#59498C"/>
<path d="M759 371.169C745.889 371.169 733.279 371.169 720.31 371.169C720.31 364.042 720.31 357.329 720.31 350.219C740.321 350.219 760.328 350.219 780.703 350.219C780.703 356.934 780.703 363.651 780.703 371.168C773.653 371.168 766.577 371.168 759 371.169Z" fill="#57468C"/>
<path d="M526 392.949C534.29 392.949 542.08 392.949 550.193 392.949C550.193 493.773 550.193 594.028 550.193 694.651C526.672 694.651 503.257 694.651 479.617 694.651C479.617 594.241 479.617 493.877 479.617 392.949C495.263 392.949 510.382 392.949 526 392.949Z" fill="#58488F"/>
<path d="M550.359 357.069C550.365 364.699 550.365 371.842 550.365 379.444C526.721 379.444 503.361 379.444 479.613 379.444C479.613 369.792 479.613 360.077 479.613 349.781C502.965 349.781 526.2 349.781 550.353 349.781C550.353 351.772 550.353 354.176 550.359 357.069Z" fill="#56458A"/>
<path d="M562.942 704.148C563.261 704.675 563.465 705.343 563.67 706.01C563.423 705.741 563.176 705.472 562.881 704.925C562.834 704.647 562.829 704.287 562.942 704.148Z" fill="#584E81"/>
<path d="M277.156 735.131C278.798 733.278 280.229 731.473 282.094 730.504C282.621 730.23 284.998 732.186 285.491 733.506C286.149 735.265 285.795 737.401 285.875 739.376C283.839 739.207 281.674 739.398 279.813 738.737C278.671 738.332 277.994 736.621 277.156 735.131Z" fill="#57478F"/>
<path d="M327.945 688.332C327.333 689.415 326.76 690.102 325.419 691.709C325.806 687.548 326.081 684.591 326.356 681.633C326.774 681.607 327.192 681.581 327.61 681.555C327.734 683.682 327.859 685.81 327.945 688.332Z" fill="#57478F"/>
<path d="M326.388 647.062C326.165 645.057 326.165 643.349 326.165 641.642C326.783 641.692 327.402 641.741 328.021 641.791C327.551 643.647 327.081 645.504 326.388 647.062Z" fill="#57478F"/>
<path d="M325.704 614.296C325.806 612.795 326.071 611.59 326.337 610.386C326.737 610.495 327.137 610.605 327.537 610.714C327.143 612.056 330.179 614.439 325.704 614.296Z" fill="#57478F"/>
<path d="M325.426 363.856C326.175 365.078 326.698 366.573 327.221 368.068C326.547 368.192 325.874 368.316 325.2 368.439C325.2 367.003 325.2 365.566 325.426 363.856Z" fill="#57478F"/>
<path d="M325.467 667.745C326.156 668.335 326.625 669.158 327.093 669.982C326.631 670.157 326.169 670.332 325.707 670.506C325.553 669.664 325.4 668.822 325.467 667.745Z" fill="#57478F"/>
<path d="M325.494 382.668C326.037 383.012 326.362 383.57 326.688 384.129C326.409 384.256 326.131 384.383 325.853 384.51C325.661 383.968 325.469 383.425 325.494 382.668Z" fill="#57478F"/>
<path d="M327.605 698.046C327.209 698.287 326.816 698.285 326.424 698.255C326.413 698.254 326.426 697.949 326.428 697.786C326.821 697.79 327.214 697.794 327.605 698.046Z" fill="#57478F"/>
<path d="M457.001 405.025C457.001 400.922 457.001 397.313 457.001 393.704C457.438 393.705 457.875 393.706 458.311 393.706C458.311 415.563 458.311 437.42 458.311 459.276C457.875 459.286 457.438 459.297 457.001 459.307C457.001 441.377 457.001 423.448 457.001 405.025Z" fill="#57478F"/>
<path d="M458.987 494.4C458.36 495.032 457.742 495.241 457.124 495.451C457.124 491.195 457.124 486.94 457.124 482.684C457.749 482.681 458.373 482.679 458.997 482.676C458.997 486.443 458.997 490.211 458.987 494.4Z" fill="#57478F"/>
<path d="M660.23 384.06C660.134 388.921 657.349 390.704 653.408 390.726C637.933 390.813 622.456 390.79 606.981 390.693C603.069 390.669 599.951 389.071 600.122 384.569C600.276 380.534 602.948 378.78 606.834 378.783C622.639 378.795 638.443 378.814 654.247 378.85C657.48 378.858 659.645 380.271 660.23 384.06Z" fill="#F8F6FA"/>
<path d="M637 367.207C626.863 367.241 617.226 367.286 607.589 367.304C602.088 367.315 599.641 365.418 599.735 361.285C599.827 357.186 602.265 355.208 607.678 355.188C622.964 355.132 638.251 355.129 653.538 355.187C658.617 355.206 660.071 356.902 660.234 361.69C660.404 366.721 657.404 367.314 653.451 367.222C648.137 367.098 642.817 367.201 637 367.207Z" fill="#F8F7FA"/>
<path d="M635 414.269C625.358 414.308 616.215 414.269 607.074 414.419C603.227 414.482 600.462 413.433 600.165 409.138C599.865 404.79 602.47 402.005 607.117 401.987C622.742 401.927 638.367 402.056 653.991 401.974C658.136 401.953 660.342 403.875 660.507 407.803C660.689 412.128 658.115 414.116 653.95 414.159C647.8 414.224 641.65 414.235 635 414.269Z" fill="#FAF8FC"/>
<path d="M389.008 367.693C384.677 367.685 380.843 367.596 377.013 367.692C372.86 367.796 371.403 365.415 371.303 361.757C371.202 358.023 372.836 355.656 376.803 355.516C380.631 355.38 384.463 355.331 388.294 355.323C399.958 355.296 411.622 355.279 423.286 355.314C429.36 355.333 431.597 357.058 431.542 361.472C431.492 365.538 428.715 367.668 422.998 367.7C411.834 367.762 400.67 367.702 389.008 367.693Z" fill="#F2EFF5"/>
<path d="M422.476 390.578C407.402 390.612 392.777 390.719 378.153 390.624C372.483 390.587 370.195 387.762 372.086 382.782C372.764 380.996 375.465 378.841 377.282 378.804C392.896 378.491 408.519 378.604 424.138 378.642C427.974 378.651 431.364 379.801 431.431 384.318C431.491 388.352 428.669 390.059 424.908 390.385C424.246 390.442 423.586 390.508 422.476 390.578Z" fill="#F8F6FA"/>
<path d="M407.999 414.116C398.024 414.085 388.548 414.027 379.072 414.04C375.265 414.046 371.923 413.506 371.713 408.698C371.519 404.244 373.895 401.908 378.845 401.887C393.973 401.824 409.102 401.813 424.23 401.864C429.321 401.881 431.421 403.815 431.315 408.072C431.205 412.518 428.534 414.154 424.458 414.152C419.139 414.149 413.819 414.13 407.999 414.116Z" fill="#FAF9FC"/>
</svg>
